<?xml version="1.0" encoding="utf-8" ?>
<svg baseProfile="full" height="276" version="1.1" width="280" xmlns="http://www.w3.org/2000/svg" xmlns:ev="http://www.w3.org/2001/xml-events" xmlns:xlink="http://www.w3.org/1999/xlink"><defs /><polygon fill="#FF5C8A" points="80,10 79,11 75,11 74,12 68,12 67,13 65,13 64,14 62,14 61,15 60,14 58,16 55,16 54,17 53,17 52,18 49,18 49,19 48,20 46,20 46,21 45,22 44,22 43,23 42,23 41,24 40,24 40,25 39,26 38,26 35,29 34,29 33,30 33,31 32,32 31,32 29,34 29,35 28,36 28,37 27,38 26,38 26,39 25,40 24,40 24,42 23,43 22,43 22,45 21,46 20,46 20,49 19,50 18,50 18,53 17,54 16,54 16,57 15,58 15,59 14,60 14,63 12,65 12,71 11,72 11,73 10,74 10,101 11,102 11,105 12,106 12,112 13,113 13,114 14,115 14,119 15,120 15,121 16,122 16,125 18,127 18,130 20,132 20,134 22,136 22,137 23,138 23,139 24,140 24,141 25,142 25,143 26,144 26,145 28,147 28,149 29,149 30,150 30,151 32,153 32,154 34,156 34,157 35,157 36,158 36,159 38,161 38,162 40,164 40,165 41,165 42,166 42,167 43,167 44,168 44,169 48,173 48,174 52,178 52,179 53,179 54,180 54,181 55,181 58,184 58,185 62,189 63,189 64,190 64,191 65,191 66,192 66,193 67,193 68,194 68,195 69,195 76,202 76,203 77,203 80,206 81,206 84,209 84,210 85,210 90,215 91,215 92,216 92,217 93,217 96,220 96,221 97,221 98,222 98,223 99,223 102,226 103,226 110,233 111,233 112,234 112,235 113,235 118,240 119,240 126,247 127,247 128,248 128,249 129,249 130,250 130,251 131,250 134,253 134,254 135,254 137,256 137,257 138,257 142,261 143,261 144,262 144,263 146,265 149,265 149,264 150,263 151,263 151,262 152,261 153,261 153,260 155,258 155,257 157,255 157,254 159,252 159,250 161,248 161,247 162,246 162,244 164,242 164,240 165,239 165,237 166,236 166,234 167,233 167,229 168,228 168,211 167,210 167,207 166,206 166,203 165,202 165,200 163,198 163,196 161,194 161,192 160,192 159,191 159,190 157,188 157,187 155,185 155,184 154,184 153,183 153,182 152,182 151,181 151,180 150,180 149,179 149,178 148,178 145,175 144,175 139,170 138,170 135,167 134,167 133,166 132,166 131,165 131,164 130,164 129,163 129,162 127,162 121,156 120,156 118,154 117,154 111,148 110,148 109,147 109,146 108,146 104,142 103,142 99,138 99,137 95,133 95,132 94,132 93,131 93,130 90,127 90,126 89,125 89,124 88,123 88,122 87,121 87,120 86,119 86,118 85,117 85,113 83,111 83,106 82,105 82,102 81,101 81,86 82,85 82,83 83,82 83,77 85,75 85,73 89,69 89,68 90,67 91,67 95,63 97,63 99,61 101,61 102,60 103,60 104,59 118,59 120,61 122,61 124,63 125,63 126,64 126,65 127,65 128,66 128,67 130,69 130,71 131,72 131,73 132,74 132,86 131,87 131,108 132,109 132,114 133,115 133,117 134,118 134,121 135,122 135,123 136,124 136,125 137,126 137,127 138,128 138,129 139,130 139,131 140,132 140,133 142,135 142,136 144,138 144,139 145,139 146,140 146,141 158,153 159,153 160,154 161,154 162,155 164,153 164,152 167,149 167,148 173,142 173,141 181,133 181,132 182,131 183,131 183,130 184,129 185,129 185,128 186,127 187,127 187,126 188,125 189,125 195,119 195,118 196,117 197,117 203,111 203,110 204,109 205,109 205,108 206,107 207,107 207,106 211,102 211,101 213,99 213,98 214,97 215,97 215,96 217,94 217,93 219,91 219,89 221,87 221,86 222,85 223,85 223,82 224,81 224,80 225,79 225,78 226,77 226,76 227,75 227,72 229,70 229,66 230,65 230,64 231,63 231,58 232,57 232,55 233,54 233,48 234,47 233,46 234,45 233,44 234,43 234,42 235,41 236,42 236,43 237,43 238,44 238,46 240,48 240,51 241,51 242,52 242,55 243,56 243,57 244,58 244,64 245,65 245,69 246,70 246,95 247,95 248,96 248,99 249,100 249,101 250,102 250,104 251,104 252,105 252,107 253,107 254,108 254,109 262,117 262,122 261,123 260,123 259,124 258,124 257,125 256,125 255,126 254,126 252,128 252,133 255,136 255,139 251,143 251,146 252,147 252,149 253,150 252,151 252,152 250,154 250,156 249,157 249,159 248,160 248,165 247,166 247,168 246,169 246,171 245,172 244,172 242,174 232,174 231,173 230,173 229,172 223,172 222,171 219,171 218,170 208,170 207,171 206,171 205,172 203,172 201,174 200,174 194,180 194,181 193,182 192,182 192,184 190,186 190,187 188,189 188,191 187,192 186,192 186,195 184,197 184,199 183,200 183,201 182,202 182,204 180,206 180,211 179,212 179,214 178,215 178,219 177,220 177,223 179,221 179,220 180,219 181,219 181,217 183,215 183,214 184,213 185,213 185,211 186,210 187,211 186,210 187,209 187,208 189,206 189,205 191,203 191,202 193,200 193,199 195,197 195,195 196,194 197,195 197,193 201,189 201,188 202,187 203,187 203,186 204,185 206,185 206,184 207,183 208,183 210,181 213,181 214,180 225,180 226,181 234,181 235,182 243,182 244,181 247,181 249,179 250,179 250,178 252,176 253,177 252,176 253,175 253,170 254,169 254,163 255,162 255,156 257,154 258,154 258,153 261,150 261,144 260,143 260,142 261,141 261,139 262,138 262,136 261,135 261,134 259,132 259,130 260,129 261,129 262,128 263,128 264,127 265,127 265,126 266,125 267,125 267,124 268,123 269,123 269,121 270,120 270,119 271,118 271,116 270,115 270,114 269,113 269,112 268,112 265,109 265,108 264,108 263,107 262,107 261,106 261,105 260,105 259,104 259,102 258,102 257,101 257,99 256,99 255,98 255,96 254,95 254,93 253,92 253,87 252,86 252,73 251,72 251,62 250,61 250,60 249,59 249,53 248,52 248,51 247,50 247,47 246,46 246,45 245,44 245,42 244,42 243,41 243,38 241,36 241,34 240,34 239,33 239,32 237,30 237,28 236,28 233,25 233,24 232,24 229,21 229,20 228,20 227,19 226,19 225,18 224,18 223,17 223,16 221,16 220,15 219,15 218,14 216,14 214,12 209,12 208,11 207,11 206,10 186,10 185,11 183,11 182,12 176,12 175,13 174,13 173,14 170,14 168,16 164,16 164,17 163,18 160,18 160,19 159,20 157,20 155,22 154,22 154,23 153,24 152,24 148,28 146,28 146,29 144,31 143,31 141,29 141,28 139,28 135,24 134,24 132,22 131,22 129,20 128,20 127,19 126,19 125,18 125,17 124,18 123,17 123,16 122,17 121,16 120,16 119,15 118,15 117,14 114,14 113,13 112,13 111,12 105,12 104,11 102,11 101,10" /></svg>