<?xml version="1.0" encoding="UTF-8"?>
<svg version="1.1" xmlns="http://www.w3.org/2000/svg" width="1463" height="1463">
<path d="M0 0 C2.45643879 -0.01152267 4.91285249 -0.03197877 7.36914062 -0.06152344 C43.48034529 -0.49337176 77.00965314 7.43526662 103.7265625 32.95141602 C122.18252433 52.31878336 130.3991482 76.62410668 130.16015625 103.20532227 C129.30308231 125.31357119 120.68620556 147.76297207 108.9453125 166.29516602 C108.29336914 166.17399414 107.64142578 166.05282227 106.96972656 165.92797852 C95.66106008 163.84638327 84.30746185 162.05772618 72.9453125 160.29516602 C72.21763672 160.18140625 71.48996094 160.06764648 70.74023438 159.95043945 C28.2205111 153.41064886 -17.24726932 153.0505486 -60.0546875 157.29516602 C-60.43923096 158.56674561 -60.43923096 158.56674561 -60.83154297 159.86401367 C-62.12875124 163.50292886 -63.78438583 166.81171776 -65.625 170.19360352 C-66.35592385 171.55734721 -67.08679726 172.92111795 -67.81762695 174.28491211 C-68.39463852 175.35548859 -68.39463852 175.35548859 -68.98330688 176.44769287 C-82.25591347 201.1037357 -94.77293448 226.08892693 -106.41876221 251.55557251 C-108.66439858 256.46099352 -110.94468475 261.34975242 -113.23046875 266.23657227 C-123.96815431 289.23072128 -134.15452296 312.42844146 -144.00909424 335.81402588 C-145.01898466 338.21044498 -146.03058781 340.60613478 -147.04248047 343.00170898 C-162.72378419 380.15950532 -177.50308677 417.68274852 -192.0546875 455.29516602 C-192.42212067 456.24482239 -192.78955383 457.19447876 -193.16812134 458.1729126 C-199.9303913 475.66679165 -206.57246902 493.20515778 -213.17850494 510.75844955 C-214.00742092 512.96063675 -214.83674566 515.16266959 -215.66619873 517.36465454 C-223.94941047 539.35464436 -232.20393511 561.35531669 -240.44781494 583.3600769 C-249.9340239 608.68037172 -259.44632464 633.98944365 -269.11962891 659.23901367 C-270.89243882 663.86813839 -272.65834308 668.4998786 -274.42341614 673.13195801 C-283.11189681 695.93031451 -291.87024891 718.69133376 -301.0546875 741.29516602 C-334.70414283 741.93603267 -368.78679478 730.31668273 -393.42578125 707.07641602 C-411.09986926 688.37812379 -417.77836059 666.02888576 -417.59130859 640.66040039 C-417.2567137 628.79958823 -415.10258242 617.73039698 -412.0546875 606.29516602 C-411.7541748 605.15192871 -411.45366211 604.00869141 -411.14404297 602.83081055 C-397.24234856 550.77832391 -375.77975366 500.90161469 -355.0546875 451.29516602 C-354.38358208 449.68662327 -353.71251889 448.0780629 -353.04150391 446.46948242 C-343.13670895 422.74099848 -332.99228458 399.11530024 -322.8548584 375.48551941 C-294.84329201 310.18875409 -267.08534658 244.80639893 -242.0546875 178.29516602 C-242.90385994 178.39032753 -242.90385994 178.39032753 -243.77018738 178.4874115 C-250.99730943 179.25769542 -258.22290029 179.68284943 -265.48046875 180.04907227 C-266.74505417 180.11424545 -268.00963959 180.17941864 -269.31254578 180.24656677 C-271.97580649 180.38305923 -274.63909579 180.51853335 -277.30249023 180.65234375 C-280.67759445 180.82211311 -284.05240608 180.99707668 -287.42716694 181.1735239 C-290.69477548 181.34349587 -293.96263451 181.50850532 -297.23046875 181.67407227 C-298.42255447 181.73655655 -299.6146402 181.79904083 -300.84284973 181.86341858 C-333.1526509 183.46304278 -366.82558308 181.74420383 -392.0546875 159.29516602 C-401.8027408 150.32956516 -407.43978099 138.16855193 -410.0546875 125.29516602 C-410.23773438 124.4430957 -410.42078125 123.59102539 -410.609375 122.71313477 C-415.66144082 83.93631379 -401.13370568 45.79725864 -385.0546875 11.29516602 C-380.63812673 12.63933669 -376.79894506 14.41653109 -372.7421875 16.60766602 C-339.16174287 34.0189059 -297.2847595 29.00803036 -261.0546875 25.35766602 C-260.02020477 25.25556824 -258.98572205 25.15347046 -257.91989136 25.04827881 C-235.94263311 22.86582079 -214.03153581 20.15102378 -192.1171875 17.42016602 C-191.2465202 17.31167706 -190.37585289 17.2031881 -189.47880173 17.09141159 C-182.48079609 16.21908032 -175.48301226 15.34497491 -168.48533821 14.46998787 C-126.88362727 9.26821245 -85.32432957 4.31256973 -43.48162842 1.46237183 C-41.27766529 1.31052823 -39.07468206 1.14864441 -36.87158203 0.98486328 C-24.59116542 0.14581456 -12.3060896 0.04000785 0 0 Z " fill="#37B6FF" transform="translate(910.0546875,305.704833984375)"/>
</svg>
